<?xml version="1.0" standalone="no"?>
<!DOCTYPE svg PUBLIC "-//W3C//DTD SVG 20010904//EN"
 "http://www.w3.org/TR/2001/REC-SVG-20010904/DTD/svg10.dtd">
<svg version="1.0" xmlns="http://www.w3.org/2000/svg"
 width="260.000000pt" height="260.000000pt" viewBox="0 0 260.000000 260.000000"
 preserveAspectRatio="xMidYMid meet">
<metadata>
Created by potrace 1.11, written by Peter Selinger 2001-2013
</metadata>
<g transform="translate(0.000000,260.000000) scale(0.100000,-0.100000)"
fill="#000000" stroke="none">
<path d="M191 2553 c-24 -9 -63 -35 -86 -58 -80 -79 -75 -7 -75 -1190 0 -1183
-4 -1111 75 -1190 79 -79 7 -75 1191 -75 1144 0 1095 -2 1171 56 18 13 45 46
60 72 l28 47 0 1090 0 1090 -28 47 c-15 26 -42 59 -60 72 -76 58 -26 56 -1176
55 -930 0 -1061 -2 -1100 -16z m1539 -493 c326 -35 517 -172 559 -404 7 -38
11 -237 11 -536 0 -474 0 -476 -22 -520 -30 -58 -78 -82 -163 -82 -85 -1 -133
24 -162 82 -23 44 -23 46 -23 518 0 525 1 516 -64 560 -81 55 -96 57 -561 57
-382 0 -436 -2 -487 -18 -58 -18 -109 -53 -131 -91 -9 -15 -13 -151 -17 -518
-5 -482 -6 -497 -26 -525 -31 -43 -85 -65 -159 -65 -76 1 -131 26 -160 74 -19
32 -20 54 -23 503 -2 293 1 496 8 540 21 143 109 268 236 337 65 35 209 76
309 87 112 12 760 13 875 1z"/>
</g>
</svg>
